<svg width="512" height="512" viewBox="0 0 512 512" fill="none" xmlns="http://www.w3.org/2000/svg">
<rect width="512" height="512" fill="white"/>
<path d="M139.664 119.48C136.443 119.15 133.184 119.413 130.071 120.254C127.041 121.08 124.21 122.448 121.734 124.283C119.197 126.17 117.064 128.491 115.449 131.124C113.713 133.961 112.549 137.073 112.014 140.306L94.8674 242.183C93.5999 249.647 95.3425 257.286 99.7554 263.61C101.847 266.622 104.53 269.233 107.662 271.304C110.81 273.381 114.384 274.821 118.158 275.531L296.109 308.423C296.413 308.476 296.716 308.529 297.026 308.569C297.337 308.608 297.633 308.655 297.936 308.688L298.839 308.761C299.142 308.761 299.432 308.761 299.735 308.794C302.601 308.853 305.447 308.341 308.086 307.292C310.721 306.233 313.115 304.71 315.14 302.807C317.286 300.794 319.044 298.449 320.338 295.874C321.741 293.082 322.651 290.095 323.032 287.029L334.953 193.666C335.381 190.302 335.195 186.895 334.403 183.59C333.644 180.395 332.336 177.336 330.53 174.534C328.802 171.837 326.587 169.442 323.985 167.455C321.421 165.506 318.455 164.076 315.274 163.255L143.628 120.168C143.303 120.082 142.972 120.003 142.633 119.943C142.295 119.884 142.006 119.805 141.639 119.745L140.651 119.593C140.32 119.547 139.995 119.507 139.664 119.474" fill="#06D7E2"/>
<path d="M184.28 185.965C181.288 186.172 178.38 186.989 175.759 188.36C173.121 189.756 170.809 191.634 168.96 193.884C166.981 196.301 165.483 199.032 164.537 201.948C163.479 205.174 163.003 208.544 163.127 211.917L166.83 318.253C166.949 322.135 167.779 325.968 169.284 329.586C170.685 332.976 172.707 336.11 175.259 338.847C177.641 341.416 180.542 343.518 183.793 345.033C186.949 346.497 190.422 347.258 193.943 347.255L353.556 346.303C353.824 346.303 354.085 346.303 354.346 346.303C354.607 346.303 354.868 346.303 355.129 346.243C355.39 346.184 355.644 346.184 355.898 346.151C356.151 346.118 356.405 346.071 356.659 346.018C359.129 345.527 361.445 344.506 363.424 343.035C365.516 341.477 367.279 339.565 368.622 337.398C370.104 335.022 371.187 332.444 371.831 329.758C372.552 326.791 372.825 323.745 372.642 320.708L367.381 227.576C367.19 224.229 366.478 220.925 365.264 217.772C364.122 214.807 362.515 212.017 360.496 209.496C358.642 207.151 356.356 205.135 353.746 203.542C351.314 202.059 348.546 201.128 345.663 200.823L187.976 185.998C187.659 185.998 187.348 185.952 187.038 185.939C186.728 185.925 186.417 185.939 186.107 185.939C185.796 185.939 185.486 185.939 185.183 185.939C184.88 185.939 184.576 185.939 184.273 185.985" fill="#9068FD"/>
<path d="M297.042 308.589C297.345 308.635 297.641 308.668 297.952 308.702C298.262 308.735 298.551 308.761 298.854 308.774C299.158 308.788 299.454 308.774 299.757 308.807C302.623 308.868 305.47 308.356 308.109 307.306C310.746 306.248 313.141 304.723 315.162 302.814C317.311 300.808 319.068 298.463 320.353 295.887C321.758 293.096 322.671 290.109 323.055 287.043L334.213 199.719L187.974 185.999C187.657 185.999 187.346 185.953 187.036 185.933H186.105C185.788 185.933 185.484 185.933 185.188 185.933C184.892 185.933 184.596 185.933 184.299 185.979C181.309 186.19 178.404 187.009 175.786 188.38C173.145 189.772 170.832 191.651 168.986 193.904C167.003 196.317 165.502 199.047 164.557 201.962C163.499 205.188 163.022 208.558 163.146 211.931L165.671 284.344L296.125 308.457C296.435 308.516 296.738 308.563 297.042 308.609" fill="#3C36A3"/>
<path d="M267.739 228.583C265.43 228.991 263.291 230.003 261.568 231.501C259.622 233.209 258.071 235.274 257.011 237.567C255.731 240.302 254.892 243.201 254.521 246.167C254.071 249.619 254.071 253.109 254.521 256.56L268.332 365.456C268.822 369.348 269.849 373.164 271.386 376.808C272.717 380.013 274.552 383.012 276.831 385.706C278.741 387.994 281.145 389.879 283.885 391.237C286.276 392.417 288.997 392.879 291.679 392.56L406.333 377.701L406.883 377.615C407.066 377.582 407.235 377.543 407.419 377.49L407.948 377.331L408.463 377.146C410.229 376.37 411.745 375.169 412.857 373.666C414.215 371.851 415.249 369.84 415.918 367.712C416.734 365.202 417.238 362.611 417.421 359.992C417.639 357.027 417.546 354.049 417.146 351.101L404.802 260.238C404.371 256.981 403.569 253.776 402.411 250.679C401.383 247.889 400.005 245.225 398.306 242.74C396.888 240.632 395.099 238.764 393.016 237.217C391.315 235.927 389.247 235.135 387.07 234.941L270.688 228.425C270.441 228.425 270.194 228.425 269.947 228.425C269.7 228.425 269.453 228.425 269.242 228.425C269.03 228.425 268.755 228.425 268.536 228.484C268.318 228.544 268.064 228.544 267.831 228.583" fill="#3C36A3"/>
<path d="M354.37 346.27C354.631 346.27 354.892 346.27 355.153 346.211L355.922 346.118L356.684 345.986C359.152 345.491 361.467 344.47 363.448 343.002C365.538 341.442 367.301 339.53 368.646 337.366C370.129 334.987 371.211 332.407 371.856 329.718C372.572 326.752 372.845 323.706 372.667 320.669L367.729 233.868L270.61 228.43C270.363 228.43 270.117 228.43 269.87 228.43H269.164C268.925 228.43 268.685 228.463 268.459 228.489C268.233 228.516 267.993 228.542 267.754 228.582C265.445 228.99 263.305 230.001 261.582 231.499C259.638 233.208 258.09 235.273 257.032 237.566C255.748 240.299 254.908 243.198 254.543 246.166C254.09 249.617 254.09 253.107 254.543 256.559L265.99 346.806L353.573 346.29C353.841 346.29 354.109 346.29 354.37 346.29" fill="#1A0F51"/>
</svg>
